<svg width="14" height="14" viewBox="0 0 14 14" fill="none" xmlns="http://www.w3.org/2000/svg">
<path d="M2.9165 2.91071C2.9165 2.3442 2.9165 2.06094 3.03462 1.9048C3.13753 1.76877 3.29481 1.6846 3.46507 1.67443C3.66051 1.66276 3.89619 1.81989 4.36756 2.13413L10.5016 6.22352C10.8911 6.48317 11.0859 6.613 11.1537 6.77664C11.213 6.9197 11.213 7.08049 11.1537 7.22355C11.0859 7.38719 10.8911 7.51702 10.5016 7.77668L4.36756 11.8661C3.89619 12.1803 3.66051 12.3374 3.46507 12.3258C3.29481 12.3156 3.13753 12.2314 3.03462 12.0954C2.9165 11.9392 2.9165 11.656 2.9165 11.0895V2.91071Z" fill="white" stroke="white" stroke-width="2" stroke-linecap="round" stroke-linejoin="round"/>
</svg>
