<svg width="20" height="20" viewBox="0 0 20 20" fill="none" xmlns="http://www.w3.org/2000/svg">
<g clip-path="url(#clip0_162_36340)">
<path d="M12.5 4.72737C14.4708 5.66359 15.8333 7.67235 15.8333 9.99935M6.99368 14.9993C5.29965 13.9786 4.16667 12.1212 4.16667 9.99931M18.3333 9.99935C18.3333 14.6017 14.6024 18.3327 10 18.3327C5.39763 18.3327 1.66667 14.6017 1.66667 9.99935C1.66667 5.39698 5.39763 1.66602 10 1.66602C14.6024 1.66602 18.3333 5.39698 18.3333 9.99935ZM12.5 9.99935C12.5 11.3801 11.3807 12.4993 10 12.4993C8.61929 12.4993 7.5 11.3801 7.5 9.99935C7.5 8.61864 8.61929 7.49935 10 7.49935C11.3807 7.49935 12.5 8.61864 12.5 9.99935Z" stroke="#2F4BFA" stroke-width="2" stroke-linecap="round" stroke-linejoin="round"/>
</g>
<defs>
<clipPath id="clip0_162_36340">
<rect width="20" height="20" fill="white"/>
</clipPath>
</defs>
</svg>
