<svg width="20" height="20" viewBox="0 0 20 20" fill="none" xmlns="http://www.w3.org/2000/svg">
<g clip-path="url(#clip0_58_6367)">
<path d="M12.5 4.72811C14.4708 5.66433 15.8333 7.67308 15.8333 10.0001M6.99368 15C5.29965 13.9793 4.16667 12.122 4.16667 10M18.3333 10.0001C18.3333 14.6025 14.6024 18.3334 10 18.3334C5.39763 18.3334 1.66667 14.6025 1.66667 10.0001C1.66667 5.39771 5.39763 1.66675 10 1.66675C14.6024 1.66675 18.3333 5.39771 18.3333 10.0001ZM12.5 10.0001C12.5 11.3808 11.3807 12.5001 10 12.5001C8.61929 12.5001 7.5 11.3808 7.5 10.0001C7.5 8.61937 8.61929 7.50008 10 7.50008C11.3807 7.50008 12.5 8.61937 12.5 10.0001Z" stroke="#737373" stroke-width="1.5" stroke-linecap="round" stroke-linejoin="round"/>
</g>
<defs>
<clipPath id="clip0_58_6367">
<rect width="20" height="20" fill="white"/>
</clipPath>
</defs>
</svg>
