<svg width="20" height="20" viewBox="0 0 20 20" fill="none" xmlns="http://www.w3.org/2000/svg">
<g clip-path="url(#clip0_254_21262)">
<path d="M15 8.33268L12.1381 11.1946C11.9731 11.3596 11.8906 11.4421 11.7954 11.473C11.7117 11.5002 11.6216 11.5002 11.5379 11.473C11.4428 11.4421 11.3603 11.3596 11.1953 11.1946L8.80474 8.80409C8.63973 8.63908 8.55723 8.55658 8.46209 8.52566C8.3784 8.49847 8.28826 8.49847 8.20458 8.52566C8.10944 8.55658 8.02694 8.63908 7.86193 8.80409L5 11.666M18.3333 9.99935C18.3333 14.6017 14.6024 18.3327 10 18.3327C5.39763 18.3327 1.66667 14.6017 1.66667 9.99935C1.66667 5.39698 5.39763 1.66602 10 1.66602C14.6024 1.66602 18.3333 5.39698 18.3333 9.99935Z" stroke="#2F4BFA" stroke-width="2" stroke-linecap="round" stroke-linejoin="round"/>
</g>
<defs>
<clipPath id="clip0_254_21262">
<rect width="20" height="20" fill="white"/>
</clipPath>
</defs>
</svg>
