<svg width="20" height="20" viewBox="0 0 20 20" fill="none" xmlns="http://www.w3.org/2000/svg">
<path d="M7.5 2.5L6.66667 6.66667M13.3333 2.5L12.5 6.66667M18.3333 6.66667H1.66667M5.66667 17.5H14.3333C15.7335 17.5 16.4335 17.5 16.9683 17.2275C17.4387 16.9878 17.8212 16.6054 18.0608 16.135C18.3333 15.6002 18.3333 14.9001 18.3333 13.5V6.5C18.3333 5.09987 18.3333 4.3998 18.0608 3.86502C17.8212 3.39462 17.4387 3.01217 16.9683 2.77248C16.4335 2.5 15.7335 2.5 14.3333 2.5H5.66667C4.26653 2.5 3.56647 2.5 3.03169 2.77248C2.56128 3.01217 2.17883 3.39462 1.93915 3.86502C1.66667 4.3998 1.66667 5.09987 1.66667 6.5V13.5C1.66667 14.9001 1.66667 15.6002 1.93915 16.135C2.17883 16.6054 2.56128 16.9878 3.03169 17.2275C3.56647 17.5 4.26653 17.5 5.66667 17.5Z" stroke="#2F4BFA" stroke-width="2" stroke-linecap="round" stroke-linejoin="round"/>
</svg>
