<svg width="20" height="20" viewBox="0 0 20 20" fill="none" xmlns="http://www.w3.org/2000/svg">
<g clip-path="url(#clip0_58_6363)">
<path d="M1.66667 10.0001H18.3333M1.66667 5.83341H5.83333M14.1667 5.83341H18.3333M1.66667 14.1667H5.83333M14.1667 14.1667H18.3333M5.83333 18.3334V1.66675M14.1667 18.3334V1.66675M5.66667 18.3334H14.3333C15.7335 18.3334 16.4335 18.3334 16.9683 18.0609C17.4387 17.8212 17.8212 17.4388 18.0608 16.9684C18.3333 16.4336 18.3333 15.7335 18.3333 14.3334V5.66675C18.3333 4.26662 18.3333 3.56655 18.0608 3.03177C17.8212 2.56137 17.4387 2.17892 16.9683 1.93923C16.4335 1.66675 15.7335 1.66675 14.3333 1.66675H5.66667C4.26653 1.66675 3.56647 1.66675 3.03169 1.93923C2.56128 2.17892 2.17883 2.56137 1.93915 3.03177C1.66667 3.56655 1.66667 4.26662 1.66667 5.66675V14.3334C1.66667 15.7335 1.66667 16.4336 1.93915 16.9684C2.17883 17.4388 2.56128 17.8212 3.03169 18.0609C3.56647 18.3334 4.26653 18.3334 5.66667 18.3334Z" stroke="#737373" stroke-width="1.5" stroke-linecap="round" stroke-linejoin="round"/>
</g>
<defs>
<clipPath id="clip0_58_6363">
<rect width="20" height="20" fill="white"/>
</clipPath>
</defs>
</svg>
