<svg width="20" height="20" viewBox="0 0 20 20" fill="none" xmlns="http://www.w3.org/2000/svg">
<path d="M18.3333 8.33341H1.66667M9.16667 11.6667H5M1.66667 6.83341L1.66667 13.1667C1.66667 14.1002 1.66667 14.5669 1.84832 14.9234C2.00811 15.237 2.26308 15.492 2.57668 15.6518C2.9332 15.8334 3.39991 15.8334 4.33333 15.8334L15.6667 15.8334C16.6001 15.8334 17.0668 15.8334 17.4233 15.6518C17.7369 15.492 17.9919 15.237 18.1517 14.9234C18.3333 14.5669 18.3333 14.1002 18.3333 13.1667V6.83342C18.3333 5.89999 18.3333 5.43328 18.1517 5.07677C17.9919 4.76316 17.7369 4.50819 17.4233 4.34841C17.0668 4.16675 16.6001 4.16675 15.6667 4.16675L4.33333 4.16675C3.39991 4.16675 2.9332 4.16675 2.57668 4.3484C2.26308 4.50819 2.00811 4.76316 1.84832 5.07676C1.66667 5.43328 1.66667 5.89999 1.66667 6.83341Z" stroke="#737373" stroke-width="1.5" stroke-linecap="round" stroke-linejoin="round"/>
</svg>
