<svg width="14" height="14" viewBox="0 0 14 14" fill="none" xmlns="http://www.w3.org/2000/svg">
<g clip-path="url(#clip0_78_9993)">
<path d="M8.75033 3.3097C10.1299 3.96505 11.0837 5.37118 11.0837 7.00008M4.8959 10.5001C3.71008 9.78553 2.91699 8.48541 2.91699 7.00005M12.8337 7.00008C12.8337 10.2217 10.222 12.8334 7.00033 12.8334C3.77866 12.8334 1.16699 10.2217 1.16699 7.00008C1.16699 3.77842 3.77866 1.16675 7.00033 1.16675C10.222 1.16675 12.8337 3.77842 12.8337 7.00008ZM8.75033 7.00008C8.75033 7.96658 7.96682 8.75008 7.00033 8.75008C6.03383 8.75008 5.25033 7.96658 5.25033 7.00008C5.25033 6.03358 6.03383 5.25008 7.00033 5.25008C7.96682 5.25008 8.75033 6.03358 8.75033 7.00008Z" stroke="#737373" stroke-width="1.2" stroke-linecap="round" stroke-linejoin="round"/>
</g>
<defs>
<clipPath id="clip0_78_9993">
<rect width="14" height="14" fill="white"/>
</clipPath>
</defs>
</svg>
