<svg width="14" height="14" viewBox="0 0 14 14" fill="none" xmlns="http://www.w3.org/2000/svg">
<g clip-path="url(#clip0_38_5682)">
<path d="M8.74984 3.3097C10.1294 3.96505 11.0832 5.37118 11.0832 7.00008M4.89541 10.5001C3.70959 9.78553 2.9165 8.48541 2.9165 7.00005M12.8332 7.00008C12.8332 10.2217 10.2215 12.8334 6.99984 12.8334C3.77818 12.8334 1.1665 10.2217 1.1665 7.00008C1.1665 3.77842 3.77818 1.16675 6.99984 1.16675C10.2215 1.16675 12.8332 3.77842 12.8332 7.00008ZM8.74984 7.00008C8.74984 7.96658 7.96634 8.75008 6.99984 8.75008C6.03334 8.75008 5.24984 7.96658 5.24984 7.00008C5.24984 6.03358 6.03334 5.25008 6.99984 5.25008C7.96634 5.25008 8.74984 6.03358 8.74984 7.00008Z" stroke="#2F4BFA" stroke-width="1.2" stroke-linecap="round" stroke-linejoin="round"/>
</g>
<defs>
<clipPath id="clip0_38_5682">
<rect width="14" height="14" fill="white"/>
</clipPath>
</defs>
</svg>
