<svg width="14" height="14" viewBox="0 0 14 14" fill="none" xmlns="http://www.w3.org/2000/svg">
<path d="M5.54167 5.22978C5.54167 4.95136 5.54167 4.81215 5.59985 4.73444C5.65055 4.66671 5.72817 4.62434 5.81255 4.61831C5.90939 4.61139 6.02649 4.68667 6.26069 4.83723L9.01437 6.60745C9.21759 6.73809 9.3192 6.80342 9.3543 6.88648C9.38497 6.95905 9.38497 7.04095 9.3543 7.11352C9.3192 7.19658 9.21759 7.26191 9.01437 7.39255L6.26069 9.16277C6.02649 9.31333 5.90939 9.38861 5.81255 9.38169C5.72817 9.37566 5.65055 9.33329 5.59985 9.26556C5.54167 9.18785 5.54167 9.04864 5.54167 8.77022V5.22978Z" stroke="#2F4BFA" stroke-width="1.2" stroke-linecap="round" stroke-linejoin="round"/>
<path d="M1.75 4.55C1.75 3.56991 1.75 3.07986 1.94074 2.70552C2.10852 2.37623 2.37623 2.10852 2.70552 1.94074C3.07986 1.75 3.56991 1.75 4.55 1.75H9.45C10.4301 1.75 10.9201 1.75 11.2945 1.94074C11.6238 2.10852 11.8915 2.37623 12.0593 2.70552C12.25 3.07986 12.25 3.56991 12.25 4.55V9.45C12.25 10.4301 12.25 10.9201 12.0593 11.2945C11.8915 11.6238 11.6238 11.8915 11.2945 12.0593C10.9201 12.25 10.4301 12.25 9.45 12.25H4.55C3.56991 12.25 3.07986 12.25 2.70552 12.0593C2.37623 11.8915 2.10852 11.6238 1.94074 11.2945C1.75 10.9201 1.75 10.4301 1.75 9.45V4.55Z" stroke="#2F4BFA" stroke-width="1.2" stroke-linecap="round" stroke-linejoin="round"/>
</svg>
