<svg width="14" height="14" viewBox="0 0 14 14" fill="none" xmlns="http://www.w3.org/2000/svg">
<path d="M7 9.33326C7.9665 9.33326 8.75 8.54976 8.75 7.58326C8.75 6.61676 7.9665 5.83326 7 5.83326C6.0335 5.83326 5.25 6.61676 5.25 7.58326C5.25 8.54976 6.0335 9.33326 7 9.33326Z" stroke="#2F4BFA" stroke-width="1.2" stroke-linecap="round" stroke-linejoin="round"/>
<path d="M1.75 6.16289C1.75 5.82785 1.75 5.66033 1.79318 5.50605C1.83143 5.3694 1.8943 5.24087 1.97868 5.12677C2.07395 4.99797 2.20618 4.89512 2.47064 4.68943L6.42699 1.61227C6.63193 1.45287 6.7344 1.37318 6.84755 1.34254C6.94738 1.31551 7.05261 1.31551 7.15245 1.34254C7.2656 1.37318 7.36807 1.45287 7.57301 1.61227L11.5294 4.68943C11.7938 4.89512 11.9261 4.99797 12.0213 5.12677C12.1057 5.24087 12.1686 5.3694 12.2068 5.50605C12.25 5.66033 12.25 5.82785 12.25 6.16289V10.3833C12.25 11.0367 12.25 11.3634 12.1228 11.6129C12.011 11.8324 11.8325 12.0109 11.613 12.1228C11.3634 12.2499 11.0367 12.2499 10.3833 12.2499H3.61667C2.96327 12.2499 2.63657 12.2499 2.38701 12.1228C2.16749 12.0109 1.98901 11.8324 1.87716 11.6129C1.75 11.3634 1.75 11.0367 1.75 10.3833V6.16289Z" stroke="#2F4BFA" stroke-width="1.2" stroke-linecap="round" stroke-linejoin="round"/>
</svg>
