<svg width="16" height="16" viewBox="0 0 16 16" fill="none" xmlns="http://www.w3.org/2000/svg">
<path d="M9.11324 4.93732L13.3137 4.93732" stroke="#0A0A0A" stroke-width="1.5" stroke-linecap="round" stroke-linejoin="round"/>
<path d="M7.23963 11.4002L3.03915 11.4002" stroke="#0A0A0A" stroke-width="1.5" stroke-linecap="round" stroke-linejoin="round"/>
<path fill-rule="evenodd" clip-rule="evenodd" d="M10.1825 11.4358C10.1825 12.2996 10.888 13 11.7579 13C12.6279 13 13.3334 12.2996 13.3334 11.4358C13.3334 10.5721 12.6279 9.87166 11.7579 9.87166C10.888 9.87166 10.1825 10.5721 10.1825 11.4358Z" stroke="#0A0A0A" stroke-width="1.5" stroke-linecap="round" stroke-linejoin="round"/>
<path fill-rule="evenodd" clip-rule="evenodd" d="M2.66665 4.96513C2.66665 5.8289 3.37154 6.5293 4.24153 6.5293C5.11207 6.5293 5.81751 5.8289 5.81751 4.96513C5.81751 4.10136 5.11207 3.40096 4.24153 3.40096C3.37154 3.40096 2.66665 4.10136 2.66665 4.96513Z" stroke="#0A0A0A" stroke-width="1.5" stroke-linecap="round" stroke-linejoin="round"/>
</svg>
