<svg width="101" height="48" viewBox="0 0 101 48" fill="none" xmlns="http://www.w3.org/2000/svg">
<path d="M3.33984 38V21.0469H0.507812V17.2969H3.33984V15.3242C3.33984 13.9701 3.5612 12.8568 4.00391 11.9844C4.45963 11.112 5.15625 10.4675 6.09375 10.0508C7.03125 9.6211 8.2487 9.40625 9.74609 9.40625C10.2279 9.40625 10.7031 9.42578 11.1719 9.46485C11.6536 9.50391 12.0443 9.54948 12.3437 9.60157V13C12.1354 12.974 11.901 12.9544 11.6406 12.9414C11.3932 12.9154 11.1393 12.9023 10.8789 12.9023C9.92838 12.9023 9.22526 13.1172 8.76953 13.5469C8.32682 13.9766 8.10547 14.6146 8.10547 15.4609V17.2969H12.2656V21.0469H8.20312V38H3.33984ZM22.1883 38.4102C20.157 38.4102 18.3927 37.9805 16.8953 37.1211C15.3979 36.2487 14.2326 35.0117 13.3992 33.4102C12.5789 31.7956 12.1687 29.875 12.1687 27.6484V27.6094C12.1687 25.3958 12.5854 23.4883 13.4187 21.8867C14.2521 20.2721 15.4174 19.0352 16.9148 18.1758C18.4122 17.3034 20.1635 16.8672 22.1687 16.8672C24.187 16.8672 25.9448 17.3034 27.4422 18.1758C28.9526 19.0352 30.1245 20.2656 30.9578 21.8672C31.7911 23.4688 32.2078 25.3828 32.2078 27.6094V27.6484C32.2078 29.888 31.7911 31.8151 30.9578 33.4297C30.1375 35.0313 28.9786 36.2617 27.4812 37.1211C25.9839 37.9805 24.2195 38.4102 22.1883 38.4102ZM22.2078 34.4844C23.2365 34.4844 24.1284 34.2174 24.8836 33.6836C25.6388 33.1497 26.2182 32.375 26.6219 31.3594C27.0385 30.3307 27.2469 29.0938 27.2469 27.6484V27.6094C27.2469 26.1771 27.0385 24.9531 26.6219 23.9375C26.2052 22.9219 25.6128 22.1471 24.8445 21.6133C24.0893 21.0794 23.1974 20.8125 22.1687 20.8125C21.1661 20.8125 20.2807 21.0794 19.5125 21.6133C18.7573 22.1471 18.1648 22.9219 17.7352 23.9375C17.3185 24.9531 17.1102 26.1771 17.1102 27.6094V27.6484C17.1102 29.0938 17.3185 30.3307 17.7352 31.3594C18.1648 32.375 18.7573 33.1497 19.5125 33.6836C20.2807 34.2174 21.1792 34.4844 22.2078 34.4844ZM34.5328 38V17.2969H39.3766V20.8711H39.4937C39.8062 19.6211 40.3727 18.6445 41.193 17.9414C42.0263 17.2253 43.0419 16.8672 44.2398 16.8672C44.5393 16.8672 44.8258 16.8867 45.0992 16.9258C45.3727 16.9648 45.6005 17.0104 45.7828 17.0625V21.457C45.5875 21.3789 45.3075 21.3138 44.943 21.2617C44.5914 21.2096 44.2073 21.1836 43.7906 21.1836C42.8792 21.1836 42.0914 21.3724 41.4273 21.75C40.7633 22.1146 40.2555 22.6549 39.9039 23.3711C39.5523 24.0872 39.3766 24.9596 39.3766 25.9883V38H34.5328ZM56.0375 45.2461C54.2146 45.2461 52.6195 44.9922 51.2523 44.4844C49.8982 43.9896 48.8174 43.306 48.0102 42.4336C47.2029 41.5612 46.7016 40.5846 46.5062 39.5039L46.4672 39.3281H51.2328L51.3109 39.4844C51.5713 40.0833 52.1052 40.5781 52.9125 40.9687C53.7328 41.3724 54.768 41.5742 56.018 41.5742C57.6065 41.5742 58.824 41.1836 59.6703 40.4023C60.5167 39.6211 60.9398 38.5729 60.9398 37.2578V34.2695H60.8422C60.4646 35.0117 59.9568 35.6497 59.3187 36.1836C58.6937 36.7174 57.9581 37.1341 57.1117 37.4336C56.2784 37.7331 55.3669 37.8828 54.3773 37.8828C52.6456 37.8828 51.1352 37.4596 49.8461 36.6133C48.57 35.7669 47.5805 34.569 46.8773 33.0195C46.1872 31.457 45.8422 29.6016 45.8422 27.4531V27.4336C45.8422 25.2461 46.1937 23.3711 46.8969 21.8086C47.613 20.2331 48.6156 19.0156 49.9047 18.1563C51.1937 17.2969 52.7107 16.8672 54.4555 16.8672C55.432 16.8672 56.3305 17.0365 57.1508 17.375C57.9711 17.7005 58.6872 18.1563 59.2992 18.7422C59.9242 19.3281 60.432 20.0182 60.8226 20.8125H60.9398V17.2969H65.8031V37.4141C65.8031 38.9766 65.406 40.3437 64.6117 41.5156C63.8174 42.7005 62.6911 43.6185 61.2328 44.2695C59.7745 44.9206 58.0427 45.2461 56.0375 45.2461ZM55.9008 34.1328C56.9164 34.1328 57.8018 33.8659 58.557 33.332C59.3122 32.7852 59.8982 32.0169 60.3148 31.0273C60.7445 30.0378 60.9594 28.8789 60.9594 27.5508V27.5313C60.9594 26.1901 60.7445 25.0313 60.3148 24.0547C59.8851 23.0651 59.2927 22.3034 58.5375 21.7695C57.7823 21.2357 56.9034 20.9688 55.9008 20.9688C54.8591 20.9688 53.9542 21.2357 53.1859 21.7695C52.4177 22.3034 51.8253 23.0586 51.4086 24.0352C50.9919 25.0117 50.7836 26.1771 50.7836 27.5313V27.5508C50.7836 28.9049 50.9919 30.0768 51.4086 31.0664C51.8253 32.043 52.4177 32.7982 53.1859 33.332C53.9542 33.8659 54.8591 34.1328 55.9008 34.1328ZM78.0891 38.4102C76.0187 38.4102 74.2349 37.974 72.7375 37.1016C71.2531 36.2292 70.1138 34.9922 69.3195 33.3906C68.5253 31.7891 68.1281 29.8945 68.1281 27.707V27.6875C68.1281 25.513 68.5253 23.6185 69.3195 22.0039C70.1268 20.3763 71.2531 19.1133 72.6984 18.2148C74.1568 17.3164 75.8755 16.8672 77.8547 16.8672C79.8208 16.8672 81.52 17.3034 82.9523 18.1758C84.3977 19.0352 85.5044 20.2461 86.2726 21.8086C87.0539 23.3711 87.4445 25.194 87.4445 27.2773V28.8398H70.5305V25.5977H85.1203L82.7766 28.625V26.75C82.7766 25.3958 82.5682 24.2695 82.1516 23.3711C81.7349 22.4727 81.162 21.8021 80.4328 21.3594C79.7036 20.9036 78.8638 20.6758 77.9133 20.6758C76.9497 20.6758 76.0904 20.9102 75.3352 21.3789C74.593 21.8346 74.007 22.5182 73.5773 23.4297C73.1607 24.3411 72.9523 25.4479 72.9523 26.75V28.625C72.9523 29.888 73.1607 30.9688 73.5773 31.8672C74.007 32.7526 74.6125 33.4362 75.3937 33.918C76.175 34.3867 77.106 34.6211 78.1867 34.6211C78.994 34.6211 79.7036 34.4974 80.3156 34.25C80.9276 33.9896 81.4289 33.6576 81.8195 33.2539C82.2232 32.8503 82.5031 32.4141 82.6594 31.9453L82.6984 31.8086H87.2297L87.1906 32.0234C87.0213 32.8177 86.7088 33.599 86.2531 34.3672C85.7974 35.1224 85.1854 35.806 84.4172 36.418C83.649 37.0299 82.7375 37.5182 81.6828 37.8828C80.6281 38.2344 79.4302 38.4102 78.0891 38.4102Z" fill="black"/>
<rect x="93.7143" y="32" width="6.04486" height="6.04486" fill="#2F4BFA"/>
</svg>
