<svg width="14" height="14" viewBox="0 0 14 14" fill="none" xmlns="http://www.w3.org/2000/svg">
<path d="M5.25 10.5001V3.70738C5.25 3.42648 5.25 3.28603 5.3011 3.17212C5.34615 3.07171 5.41868 2.98609 5.51032 2.92515C5.61428 2.85601 5.75282 2.83292 6.02989 2.78674L11.1632 1.93119C11.5371 1.86887 11.7241 1.83771 11.8698 1.89183C11.9976 1.93932 12.1048 2.03011 12.1727 2.14842C12.25 2.28324 12.25 2.47277 12.25 2.85182V9.33339M5.25 10.5001C5.25 11.4666 4.4665 12.2501 3.5 12.2501C2.5335 12.2501 1.75 11.4666 1.75 10.5001C1.75 9.53356 2.5335 8.75006 3.5 8.75006C4.4665 8.75006 5.25 9.53356 5.25 10.5001ZM12.25 9.33339C12.25 10.2999 11.4665 11.0834 10.5 11.0834C9.5335 11.0834 8.75 10.2999 8.75 9.33339C8.75 8.36689 9.5335 7.58339 10.5 7.58339C11.4665 7.58339 12.25 8.36689 12.25 9.33339Z" stroke="#737373" stroke-width="1.2" stroke-linecap="round" stroke-linejoin="round"/>
</svg>
