<svg width="48" height="48" viewBox="0 0 48 48" fill="none" xmlns="http://www.w3.org/2000/svg">
<path d="M14 32.0001C12.0301 32.0023 10.1285 31.2775 8.65976 29.9647C7.19099 28.6519 6.25826 26.8433 6.04025 24.8854C5.82224 22.9275 6.33429 20.958 7.47829 19.3543C8.6223 17.7505 10.3178 16.6253 12.24 16.1941C11.6839 13.6002 12.1809 10.8917 13.6217 8.66435C15.0626 6.43698 17.3292 4.87321 19.923 4.31705C22.5168 3.7609 25.2254 4.25791 27.4527 5.69875C29.6801 7.13959 31.2439 9.40624 31.8 12.0001H32C34.4799 11.9976 36.8723 12.9166 38.7127 14.5788C40.5531 16.241 41.7102 18.5277 41.9594 20.9951C42.2087 23.4624 41.5322 25.9344 40.0614 27.931C38.5906 29.9277 36.4303 31.3066 34 31.8001M18 26.0001L24 20.0001L30 26.0001M24 20.0001V44.0001" stroke="#A3A3A3" stroke-width="3" stroke-linecap="round" stroke-linejoin="round"/>
</svg>
