<svg width="20" height="20" viewBox="0 0 20 20" fill="none" xmlns="http://www.w3.org/2000/svg">
<g clip-path="url(#clip0_58_6381)">
<path d="M15 8.33341L12.1381 11.1953C11.9731 11.3604 11.8906 11.4429 11.7954 11.4738C11.7117 11.501 11.6216 11.501 11.5379 11.4738C11.4428 11.4429 11.3603 11.3604 11.1953 11.1953L8.80474 8.80482C8.63973 8.63981 8.55723 8.55731 8.46209 8.5264C8.3784 8.49921 8.28826 8.49921 8.20458 8.5264C8.10944 8.55731 8.02694 8.63981 7.86193 8.80482L5 11.6667M18.3333 10.0001C18.3333 14.6025 14.6024 18.3334 10 18.3334C5.39763 18.3334 1.66667 14.6025 1.66667 10.0001C1.66667 5.39771 5.39763 1.66675 10 1.66675C14.6024 1.66675 18.3333 5.39771 18.3333 10.0001Z" stroke="#737373" stroke-width="1.5" stroke-linecap="round" stroke-linejoin="round"/>
</g>
<defs>
<clipPath id="clip0_58_6381">
<rect width="20" height="20" fill="white"/>
</clipPath>
</defs>
</svg>
