<svg width="20" height="20" viewBox="0 0 20 20" fill="none" xmlns="http://www.w3.org/2000/svg">
<path d="M7.5 15.416H12.5M5.5 1.66602H14.5C14.9667 1.66602 15.2001 1.66602 15.3783 1.75684C15.5351 1.83674 15.6626 1.96422 15.7425 2.12102C15.8333 2.29928 15.8333 2.53264 15.8333 2.99935V4.72811C15.8333 5.13576 15.8333 5.33959 15.7873 5.5314C15.7465 5.70146 15.6791 5.86404 15.5877 6.01316C15.4847 6.18135 15.3405 6.32548 15.0523 6.61373L12.6095 9.05654C12.2795 9.38655 12.1145 9.55156 12.0526 9.74183C11.9983 9.9092 11.9983 10.0895 12.0526 10.2569C12.1145 10.4471 12.2795 10.6121 12.6095 10.9422L15.0523 13.385C15.3405 13.6732 15.4847 13.8173 15.5877 13.9855C15.6791 14.1347 15.7465 14.2972 15.7873 14.4673C15.8333 14.6591 15.8333 14.8629 15.8333 15.2706V16.9993C15.8333 17.4661 15.8333 17.6994 15.7425 17.8777C15.6626 18.0345 15.5351 18.162 15.3783 18.2419C15.2001 18.3327 14.9667 18.3327 14.5 18.3327H5.5C5.03329 18.3327 4.79994 18.3327 4.62168 18.2419C4.46487 18.162 4.33739 18.0345 4.2575 17.8777C4.16667 17.6994 4.16667 17.4661 4.16667 16.9993V15.2706C4.16667 14.8629 4.16667 14.6591 4.21272 14.4673C4.25355 14.2972 4.32089 14.1347 4.41227 13.9855C4.51534 13.8173 4.65946 13.6732 4.94772 13.385L7.39053 10.9422C7.72054 10.6121 7.88555 10.4471 7.94737 10.2569C8.00175 10.0895 8.00175 9.9092 7.94737 9.74183C7.88555 9.55156 7.72054 9.38655 7.39053 9.05654L4.94772 6.61373C4.65947 6.32548 4.51534 6.18135 4.41227 6.01316C4.32089 5.86404 4.25355 5.70146 4.21272 5.5314C4.16667 5.33959 4.16667 5.13576 4.16667 4.72811V2.99935C4.16667 2.53264 4.16667 2.29928 4.2575 2.12102C4.33739 1.96422 4.46487 1.83674 4.62168 1.75684C4.79994 1.66602 5.03329 1.66602 5.5 1.66602Z" stroke="#2F4BFA" stroke-width="2" stroke-linecap="round" stroke-linejoin="round"/>
</svg>
