<svg width="20" height="20" viewBox="0 0 20 20" fill="none" xmlns="http://www.w3.org/2000/svg">
<path d="M7.5 15.4167H12.5M5.5 1.66675H14.5C14.9667 1.66675 15.2001 1.66675 15.3783 1.75758C15.5351 1.83747 15.6626 1.96495 15.7425 2.12176C15.8333 2.30002 15.8333 2.53337 15.8333 3.00008V4.72885C15.8333 5.1365 15.8333 5.34032 15.7873 5.53213C15.7465 5.70219 15.6791 5.86477 15.5877 6.01389C15.4847 6.18208 15.3405 6.32621 15.0523 6.61446L12.6095 9.05727C12.2795 9.38729 12.1145 9.55229 12.0526 9.74257C11.9983 9.90994 11.9983 10.0902 12.0526 10.2576C12.1145 10.4479 12.2795 10.6129 12.6095 10.9429L15.0523 13.3857C15.3405 13.674 15.4847 13.8181 15.5877 13.9863C15.6791 14.1354 15.7465 14.298 15.7873 14.468C15.8333 14.6598 15.8333 14.8637 15.8333 15.2713V17.0001C15.8333 17.4668 15.8333 17.7001 15.7425 17.8784C15.6626 18.0352 15.5351 18.1627 15.3783 18.2426C15.2001 18.3334 14.9667 18.3334 14.5 18.3334H5.5C5.03329 18.3334 4.79994 18.3334 4.62168 18.2426C4.46487 18.1627 4.33739 18.0352 4.2575 17.8784C4.16667 17.7001 4.16667 17.4668 4.16667 17.0001V15.2713C4.16667 14.8637 4.16667 14.6598 4.21272 14.468C4.25355 14.298 4.32089 14.1354 4.41227 13.9863C4.51534 13.8181 4.65946 13.674 4.94772 13.3857L7.39053 10.9429C7.72054 10.6129 7.88555 10.4479 7.94737 10.2576C8.00175 10.0902 8.00175 9.90994 7.94737 9.74257C7.88555 9.55229 7.72054 9.38728 7.39053 9.05727L4.94772 6.61446C4.65947 6.32621 4.51534 6.18208 4.41227 6.01389C4.32089 5.86477 4.25355 5.70219 4.21272 5.53213C4.16667 5.34032 4.16667 5.1365 4.16667 4.72885V3.00008C4.16667 2.53337 4.16667 2.30002 4.2575 2.12176C4.33739 1.96495 4.46487 1.83747 4.62168 1.75758C4.79994 1.66675 5.03329 1.66675 5.5 1.66675Z" stroke="#737373" stroke-width="1.5" stroke-linecap="round" stroke-linejoin="round"/>
</svg>
