<svg width="20" height="20" viewBox="0 0 20 20" fill="none" xmlns="http://www.w3.org/2000/svg">
<g clip-path="url(#clip0_128_22091)">
<path d="M1.66667 10.0003H18.3333M1.66667 5.83366H5.83333M14.1667 5.83366H18.3333M1.66667 14.167H5.83333M14.1667 14.167H18.3333M5.83333 18.3337V1.66699M14.1667 18.3337V1.66699M5.66667 18.3337H14.3333C15.7335 18.3337 16.4335 18.3337 16.9683 18.0612C17.4387 17.8215 17.8212 17.439 18.0608 16.9686C18.3333 16.4339 18.3333 15.7338 18.3333 14.3337V5.66699C18.3333 4.26686 18.3333 3.5668 18.0608 3.03202C17.8212 2.56161 17.4387 2.17916 16.9683 1.93948C16.4335 1.66699 15.7335 1.66699 14.3333 1.66699H5.66667C4.26653 1.66699 3.56647 1.66699 3.03169 1.93948C2.56128 2.17916 2.17883 2.56161 1.93915 3.03202C1.66667 3.5668 1.66667 4.26686 1.66667 5.66699V14.3337C1.66667 15.7338 1.66667 16.4339 1.93915 16.9686C2.17883 17.439 2.56128 17.8215 3.03169 18.0612C3.56647 18.3337 4.26653 18.3337 5.66667 18.3337Z" stroke="#2F4BFA" stroke-width="2" stroke-linecap="round" stroke-linejoin="round"/>
</g>
<defs>
<clipPath id="clip0_128_22091">
<rect width="20" height="20" fill="white"/>
</clipPath>
</defs>
</svg>
