<svg width="20" height="20" viewBox="0 0 20 20" fill="none" xmlns="http://www.w3.org/2000/svg">
<g clip-path="url(#clip0_323_1465)">
<path d="M5.07864 9.35741C5.02684 9.0236 4.99997 8.68163 4.99997 8.33341C4.99997 4.65152 8.00437 1.66675 11.7105 1.66675C15.4166 1.66675 18.421 4.65152 18.421 8.33341C18.421 9.16514 18.2677 9.96129 17.9876 10.6955C17.9295 10.848 17.9004 10.9242 17.8872 10.9838C17.8741 11.0427 17.869 11.0842 17.8676 11.1446C17.8662 11.2056 17.8744 11.2727 17.891 11.407L18.2265 14.1322C18.2628 14.4272 18.2809 14.5747 18.2319 14.6819C18.1889 14.7759 18.1125 14.8505 18.0176 14.8913C17.9092 14.9379 17.7622 14.9164 17.4681 14.8733L14.8137 14.4842C14.6751 14.4639 14.6058 14.4537 14.5427 14.4541C14.4803 14.4544 14.4371 14.459 14.376 14.4719C14.3142 14.4849 14.2353 14.5144 14.0775 14.5735C13.3414 14.8492 12.5437 15.0001 11.7105 15.0001C11.362 15.0001 11.0197 14.9737 10.6856 14.9228M6.35965 18.3334C8.8304 18.3334 10.8333 16.2814 10.8333 13.7501C10.8333 11.2188 8.8304 9.16675 6.35965 9.16675C3.8889 9.16675 1.88596 11.2188 1.88596 13.7501C1.88596 14.2589 1.9669 14.7484 2.11629 15.2057C2.17944 15.399 2.21102 15.4957 2.22138 15.5617C2.2322 15.6306 2.2341 15.6693 2.23007 15.739C2.22621 15.8057 2.20951 15.8812 2.17612 16.032L1.66667 18.3334L4.16233 17.9926C4.29855 17.974 4.36666 17.9647 4.42614 17.9651C4.48877 17.9655 4.522 17.9689 4.58342 17.9811C4.64175 17.9928 4.72847 18.0234 4.90189 18.0846C5.35883 18.2458 5.84926 18.3334 6.35965 18.3334Z" stroke="#737373" stroke-width="1.5" stroke-linecap="round" stroke-linejoin="round"/>
</g>
<defs>
<clipPath id="clip0_323_1465">
<rect width="20" height="20" fill="white"/>
</clipPath>
</defs>
</svg>
