<svg width="20" height="20" viewBox="0 0 20 20" fill="none" xmlns="http://www.w3.org/2000/svg">
<path d="M18.3333 8.33464H1.66667M9.16667 11.668H5M1.66667 6.83464L1.66667 13.168C1.66667 14.1014 1.66667 14.5681 1.84832 14.9246C2.00811 15.2382 2.26308 15.4932 2.57668 15.653C2.9332 15.8346 3.39991 15.8346 4.33333 15.8346L15.6667 15.8346C16.6001 15.8346 17.0668 15.8346 17.4233 15.653C17.7369 15.4932 17.9919 15.2382 18.1517 14.9246C18.3333 14.5681 18.3333 14.1014 18.3333 13.168V6.83464C18.3333 5.90122 18.3333 5.43451 18.1517 5.07799C17.9919 4.76438 17.7369 4.50941 17.4233 4.34963C17.0668 4.16797 16.6001 4.16797 15.6667 4.16797L4.33333 4.16797C3.39991 4.16797 2.9332 4.16797 2.57668 4.34962C2.26308 4.50941 2.00811 4.76438 1.84832 5.07798C1.66667 5.4345 1.66667 5.90121 1.66667 6.83464Z" stroke="#2F4BFA" stroke-width="2" stroke-linecap="round" stroke-linejoin="round"/>
</svg>
